<?xml version="1.0" encoding="UTF-8"?>
<svg id="Layer_1" xmlns="http://www.w3.org/2000/svg" version="1.1" viewBox="0 0 34.72 47.78">
  <!-- Generator: Adobe Illustrator 29.1.0, SVG Export Plug-In . SVG Version: 2.1.0 Build 142)  -->
  <defs>
    <style>
      .st0 {
        fill: #f6f1ea;
      }

      .st1 {
        isolation: isolate;
      }
    </style>
  </defs>
  <g class="st1">
    <g class="st1">
      <g class="st1">
        <g class="st1">
          <path class="st0" d="M31.49,12.86c0,3.91-1.63,7.37-4.89,10.4-1.56,1.45-4.82,3.66-9.79,6.6-4.22,2.51-7.31,5.47-9.29,8.88.37-.12.82-.18,1.35-.18,1.29,0,3.18.3,5.67.9s4.38.9,5.67.9c3.26,0,5.75-2.47,7.47-7.41.16-.16.41-.24.76-.24.61,0,.91.2.91.6,0,.46-.26,1.37-.79,2.75-2.19,5.72-5.15,8.58-8.88,8.58-1.41,0-3.3-.79-5.67-2.36-2.37-1.57-4.13-2.36-5.26-2.36s-1.96.79-2.65,2.36c-.69,1.57-1.26,2.36-1.71,2.36-.61,0-.91-.2-.91-.6,0-.16.09-.52.26-1.08.98-3.05,2.51-5.86,4.6-8.43,1.5-1.85,4.08-3.95,7.73-6.3,7.44-4.78,11.16-10.66,11.16-17.63,0-1.89-.4-3.44-1.2-4.63-.94-1.39-2.29-2.09-4.07-2.09-2.42,0-4.68,1.2-6.77,3.59-1.62,1.87-2.94,4.2-3.96,6.99-.74,2.03-1.11,3.67-1.11,4.9,0,1.35.44,2.03,1.32,2.03,1.46,0,2.84-1.03,4.13-3.08,1.17-1.89,1.76-3.63,1.76-5.2,0-.32-.11-.76-.32-1.31-.22-.56-.32-1-.32-1.31,0-.44.21-.66.64-.66.39,0,.72.45,1,1.34.21.72.32,1.34.32,1.88,0,2.03-.7,4.1-2.11,6.22-1.54,2.31-3.26,3.47-5.16,3.47-2.03,0-3.05-1.29-3.05-3.85,0-1.31.41-3.01,1.23-5.08,1.23-3.11,2.8-5.65,4.72-7.62,2.36-2.41,4.97-3.62,7.82-3.62s5.18,1,6.91,2.99c1.64,1.91,2.46,4.35,2.46,7.32Z"/>
        </g>
      </g>
    </g>
  </g>
</svg>