<?xml version="1.0" encoding="UTF-8"?>
<svg id="Drawing" xmlns="http://www.w3.org/2000/svg" version="1.1" viewBox="0 0 612.91 1485.66">
  <!-- Generator: Adobe Illustrator 29.1.0, SVG Export Plug-In . SVG Version: 2.1.0 Build 142)  -->
  <defs>
    <style>
      .st0 {
        fill: #f6f1ea;
      }
    </style>
  </defs>
  <path class="st0" d="M0,1475.93C0,987.2,0,498.46,0,9.73c.36-.61.81-1.18,1.05-1.83C2.49,4.02,5.25,1.61,9.29.56c.54-.14,1.06-.37,1.59-.56,197.38,0,394.76,0,592.14,0,.75.28,1.5.59,2.26.83,2.8.88,4.94,2.57,6.39,5.06.52.89.83,1.91,1.24,2.87v1468.63c-.15.17-.4.32-.45.52-.95,3.55-3.43,5.65-6.75,6.99-.58.23-1.14.51-1.71.77H9.89c-.28-.15-.54-.37-.84-.45-4.12-1.1-6.79-3.65-8.11-7.63-.19-.59-.62-1.1-.95-1.64ZM589.82,878.07c.15-.27.3-.41.3-.54.03-183.69.06-367.39.08-551.08,0-.64-.08-1.29-.14-1.93,0-.07-.08-.13-.14-.19-.05-.06-.12-.11-.2-.19h-260.46v553.94h260.56ZM25.2,878.08c6.56.53,257.71.27,259.61-.24.47-3.53.3-551.86-.2-553.7H25.2v553.94ZM284.23,1064.99H23.23v250.4h261.01v-250.4ZM329.49,1315.37c.59.08.91.17,1.23.17,86.22,0,172.44,0,258.66,0,.24,0,.49-.07.72-.12.07-.02.15-.06.21-.11.06-.05.11-.12.16-.19.5-4.24.28-248.34-.24-250.14-.29-.04-.61-.14-.93-.14-86.14,0-172.28,0-258.41,0-.33,0-.65.07-.98.12-.07.01-.13.09-.19.14-.06.05-.12.11-.23.22v250.06ZM429.87,22.61h-245.47c-.57,2.85-.45,254.88.1,256.62h245.36V22.61ZM329.38,1024.43c3.84.52,258.89.31,260.62-.19.49-3.82.3-103.9-.23-105.72h-260.26c-.52,1.9-.64,102.97-.13,105.91ZM284.91,918.56H25.21v105.78c2.97.53,257.82.41,259.7-.12v-105.66ZM140,1353.38H25.72v109.67c3.05.54,112.47.41,114.29-.12v-109.55ZM588.58,1463.24v-109.74c-3.13-.49-111.71-.36-113.55.12v109.62h113.55ZM138.78,128.71V22.78c-2.5-.52-111.58-.47-113.49.02-.5,3.14-.32,104.13.21,105.92h113.28ZM475.01,128.54c2.95.54,111.75.42,113.53-.08.55-3.8.31-104.2-.26-105.87h-113.27v105.96ZM138.72,279.26c.54-4.3.34-104.25-.2-106.02H25.41c-.53,2.5-.47,104.11.05,106.02h113.25ZM475.02,173.24v105.86c2.83.49,111.67.38,113.57-.09v-105.77h-113.57ZM183.07,1353.33c-.58,2.18-.56,107.83-.02,109.82,3.54.5,99.49.3,101.19-.21.45-3.42.29-107.76-.2-109.61h-100.97ZM328.66,1353.34c-.52,4.18-.32,108.09.17,109.81,3.71.5,99.25.3,100.95-.21.47-3.95.27-107.79-.23-109.6h-100.89ZM296.15,1044.87c1.58,1.21,2.89,2.07,4.03,3.11,1.08.99,2.09,2.08,2.93,3.27.88,1.26,1.6,2.64,2.23,4.04.59,1.3.97,2.7,1.45,4.05,1.57-6.51,5.31-11.2,10.96-14.53-1.72-1.32-3.32-2.35-4.66-3.64-1.29-1.23-2.44-2.64-3.41-4.13-.99-1.52-1.67-3.23-2.7-5.28-1.82,6.05-5.48,10.13-10.83,13.09ZM317.91,898.29c-5.23-2.96-8.64-6.94-10.65-12.29-1.9,5.4-5.2,9.54-10.56,12.37,5.14,3.08,8.55,7.13,10.46,12.52,2.01-5.44,5.37-9.57,10.76-12.6ZM161.57,135.22c-2.71,8.47-8.29,13.7-17.15,15.75,2.15.83,4.15,1.39,5.93,2.35,1.78.96,3.51,2.15,4.95,3.55,1.44,1.4,2.66,3.09,3.68,4.82.98,1.67,1.57,3.56,2.33,5.36.09-.03.17-.07.26-.1v-31.73ZM161.51,284.27c-.98,4.13-2.67,7.84-5.62,10.95-2.91,3.07-6.57,4.9-11.17,6.21,4.41.51,31.2.35,33.13-.16-8.93-2.49-14.31-8.12-16.33-17ZM436.6,301.55h31.96c-8.43-2.55-13.76-8-16.15-16.92-2.27,8.96-7.52,14.24-15.81,16.92ZM298.15,1334.76c3.86,2.67,6.6,6.39,8.26,11.53,1.82-5.34,4.72-9.17,8.97-11.94-6.38-6.32-5.95-6.32-8.45-13.13-1.06,2.38-1.88,4.95-3.3,7.15-1.47,2.27-3.53,4.17-5.48,6.4ZM452.75,136.84v28.38c3.13-7.47,8.57-12.23,16.58-14.25-3.81-1.06-7.23-2.55-10.12-5.09-2.85-2.51-4.79-5.64-6.46-9.03ZM323,301.74h-31.14c7.65,2.17,12.72,6.92,15.41,14.86,2.88-7.99,8.1-12.7,15.73-14.86ZM452.34,1347.14c1.41-2.89,2.95-6.03,4.54-9.26h-9.11c1.59,3.23,3.14,6.37,4.57,9.26ZM165.07,1337.89c-2.4-.16-4.54-.36-6.87.13,1.15,1.91,2.19,3.62,3.28,5.43,1.17-1.82,2.27-3.51,3.59-5.56Z"/>
</svg>