<?xml version="1.0" encoding="UTF-8"?>
<svg id="Drawing" xmlns="http://www.w3.org/2000/svg" version="1.1" viewBox="0 0 613 1485.7">
  <!-- Generator: Adobe Illustrator 29.1.0, SVG Export Plug-In . SVG Version: 2.1.0 Build 142)  -->
  <defs>
    <style>
      .st0 {
        fill: #f6f1ea;
      }
    </style>
  </defs>
  <path class="st0" d="M607.8,0c7.9,13.4,4.5,28.1,4.5,42.2.2,475,0,950.1,0,1425.1s0,3.9,0,5.8c-.3,7.9-5.1,12.5-12.9,12.5H14.3c-9.2,0-14-4.5-14.1-13.8,0-25.3-.2-50.7-.2-76V173.8C.1,124.5.2,75.2,0,25.9,0,16.8-.5,7.7,5.6,0h602.2ZM436.7,842.1v-103.3c0-34,0-68.1-.1-102.1,0-2.3-1.7-4.6-2.7-6.8-1.8,1.5-4.1,2.7-5.3,4.6-4.8,7.3-9.4,14.6-13.7,22.2-26.2,46.9-43.6,97.1-57.1,148.9-15.7,60.3-25.4,121.7-31.5,183.7-5.5,55.6-8.3,111.4-8.5,167.3,0,7.8,2.2,10,10,10h99.4c7.1,0,9.5-2.4,9.5-9.2v-68.5c0-7-2.4-9.4-9.3-9.4h-36c-8,0-9.1,1-10.4,8.9-1,6.4-6.2,11.2-11.6,10.9-5.4-.3-10.2-5.7-10.4-12,0-5.2,0-10.4,0-15.7,0-9.5,4.8-14.1,14.4-14.2h52.3c9.2,0,11.1-1.9,11.1-11.1v-204.2h-.1ZM295.1,1102.3h-1c-.4-7.5-.8-15.1-1.1-22.6-3.3-74.4-11-148.4-25.9-221.5-11.5-56.7-26.7-112.4-51.1-165.1-9.4-20.3-21.2-39.4-32-59-.8-1.5-3-2.2-4.6-3.4-1,1.9-2,3.8-3,5.7-.2.5,0,1.1,0,1.7v409c0,8.1,2.1,10.2,10.2,10.2h54c6.9,0,12.3,3.7,13,10,.8,7.4.7,15.1,0,22.5-.6,5.7-6,9.6-10.9,9.3-5-.2-9.7-5-10.4-10.8-1-7.7-2.5-9-10.4-9h-35.4c-7.8,0-10,2.1-10,9.9v67.3c0,7.7,2.2,9.9,9.9,9.9h98.8c8,0,10-2.1,10-10.3v-53.9h0ZM154.3,846.2v-185.7c0-6.2.2-12.4,0-18.6,0-1.9-1.9-3.7-2.8-5.6-1.4,1.1-3.3,1.9-4.1,3.3-5.5,9.1-11.1,18.2-16,27.6-35.5,68.5-54.9,142-68.6,217.4-8.7,47.8-14.8,95.9-17.6,144.4-2.5,42.6-3.8,85.4-5.5,128-.3,6.8,2.2,9.4,8.6,9.5h97.6c5.9,0,8.5-2.6,8.5-8.4v-70.2c0-5.6-2.5-8.3-8-8.4h-32c-5.2,0-7.6,3-7.7,8v5.2c-.4,6.5-5.5,12.2-11,12.2s-10.9-5.8-11.1-12.6v-20.9c0-7,4.8-14.1,14.4-14.1h44.2c14.8,0,11.1-1.9,11.1-11.1v-200.2h0v.2h0ZM515.7,1166.5h47.6c7.7,0,9.9-2.2,9.7-10-.3-18-.6-36-1.2-53.9-2.8-84.2-10.8-167.8-28-250.3-11.9-57.2-27.9-113.2-53.1-166.2-7.3-15.5-16.2-30.3-24.5-45.4-1.5-2.8-3.5-5.3-6.4-1.7-1,1.3-1.1,3.6-1.1,5.4v403.2c0,7.7,2.2,9.8,10,9.9h45.9c8.6,0,13.7,5.1,13.8,13.7v18.6c0,8.8-4.6,15.1-10.9,15.2-6.6.2-11.1-6-11.2-15.4v-.6c0-7.2-2.4-9.5-9.8-9.6h-27.9c-7.8,0-10,2.1-10,9.9v67.3c0,7.8,2.2,9.9,9.9,9.9h47.2ZM22.3,309.3v127c0,2,.8,5,2.2,5.8,1.3.8,4-.7,6.1-1.2,6.4-1.8,12.8-5.1,19.2-5.2,31.5-.6,63.1-.2,94.7-.4,2.6,0,6.2-1.5,7.6-3.6,3.6-5.3,1-13-4.6-16.3-12.4-7.1-17.9-18-15.3-31.6,2.2-11.7,5.9-23.2,10.4-34.2,4.8-11.7,2-13.4-9.3-13.2-19.2.4-38.3.3-57.5,0-16.3-.2-27.4-12-25-25.9,1-5.9,5.3-10.7,10.2-11.2,4.9-.6,9.4,2.5,11.6,8.6,1.7,4.7,4.6,6.7,9.5,6.6,20.7-.1,41.4,0,62.2,0s9.8-2.3,9.8-9.6v-49.9c0-2.9-.3-5.8-.9-8.6-2.6-11.4-8-21.1-17.5-28.5-9-7.1-9.5-11.2-3.6-21.3,2.7-4.7,5.8-9.2,8.2-14,1.1-2.1,1.9-5.3,1-7.2-.6-1.4-4.1-2.2-6.3-2.2-34.1-.1-68.2,0-102.2,0s-10.2,2-10.3,10.1v125.9h-.2,0ZM590.4,309.5v-125.9c0-8.1-2.2-10.2-10.3-10.2h-88.9c-29.6,0-9.3,0-13.9,0s-8.3,3.2-5.1,8.6c2.7,4.7,5.6,9.3,8.3,13.9,6.6,11.1,5.9,14.8-4.2,23.1-11.3,9.2-17,21.3-17.2,35.8-.2,16.6,0,33.3,0,49.9s2.2,9.8,9.9,9.8c19.8,0,39.5-.2,59.3.1,6.4,0,10.6-1.4,12.7-8.1,1.4-4.3,5-7.4,10.1-7.3,5.1.2,8.2,3.4,10,7.7,2.8,6.8,1.6,13.3-2.6,19.2-5.4,7.6-13.4,10.3-22.3,10.3-20.5.2-41.1,0-61.6,0s-8,3-5.9,8.9c3.6,10,7.2,19.9,10.5,30,5.4,16.5.2,33.8-15.5,41-6.5,3-3.9,9.5-3.5,14.4.3,4.4,4.7,4.7,8.7,4.7,31.4,0,62.8-.3,94.1.2,5.9,0,11.9,2.7,17.8,4.3,2.4.7,4.7,1.7,7.1,2.5.9-2.8,2.5-5.5,2.5-8.3.2-41.6,0-83.2,0-124.7h0ZM317.3,304.7v121.9c0,6.3,1.9,8.9,7.1,8.9,34.7,0,69.4,0,104-.1,2.1,0,4.9-1.6,6-3.3,3.5-5.3,1.1-13.2-4.4-16.4-12.6-7.4-18.6-18.4-15.5-32.6,2.6-12.2,7-24,11.1-35.8,2.9-8.4,1.8-10.5-7-10.5-19.4,0-38.7.2-58.1-.1-15.8-.2-26.4-11.1-25.1-24.9.6-6,4.9-11.4,9.9-12.2,5.1-.8,9.9,2.3,12.1,8.7,1.6,4.8,4.7,6.5,9.6,6.5h59.9c6.8,0,9.2-2.3,9.2-8.9,0-17.2.2-34.4,0-51.7-.1-9.7-3.2-18.7-9.2-26.3-3.2-4.1-7.2-7.5-11-11-6.6-6.2-7.4-10-3-17.8,3-5.4,6.5-10.6,9.4-16,1.1-2,2.2-5.2,1.3-6.6-1.1-1.7-4.3-2.7-6.6-2.7-29.6-.2-59.3-.1-88.9-.1s-11,1.8-11,11.2v120.1h0l.2-.3ZM295.3,305.3v-122.4c0-6.7-2.2-9.6-8-9.6h-93.5c-5.2,0-6.9,3.5-4.2,8.1,2.8,4.8,5.8,9.6,8.6,14.4,6.6,11.1,5.8,14.8-4.3,23.1-11.5,9.4-17.1,21.7-17.3,36.4,0,16.4,0,32.9,0,49.3s2.2,9.8,9.9,9.8c19.2,0,38.3-.2,57.5.1,6.1,0,9.8-1.8,11.8-7.8,1.5-4.4,4.9-7.6,10-7.6s8.5,3.4,10.4,8c3.3,7.9.8,18.3-7,23.1-5.5,3.4-12.4,5.7-18.9,5.9-19.1.8-38.3.3-57.5.3s-8.6,2.8-6.1,9.4c3.5,9.6,6.9,19.2,10.1,28.9,5.5,16.8.5,34.3-15.4,41.5-6.5,3-3.9,9.5-3.5,14.4.3,4.3,4.8,4.6,8.7,4.6h99.3c33.1,0,9.5-1.8,9.5-9.5v-120.6h0v.2h0ZM22.3,730.7v238.5c0,1.5-.4,3.2,0,4.6.4,1.3,1.8,2.3,2.7,3.4.8-1.1,2-2.1,2.2-3.3,3.7-26.2,6.8-52.5,11.1-78.6,9.5-58.6,23.2-116.3,44-172.1,15.7-42.2,34.7-82.7,62.3-118.6,5.9-7.7,5.6-9.2-1.6-15.7-36.2-32.7-72.2-65.5-108.4-98.3-2-1.8-3.7-4-5.8-5.7-1.1-.9-3.1-1.8-4-1.3-1.2.7-2.1,2.5-2.6,4-.4,1.4,0,3.1,0,4.6v238.5h.1ZM590.4,728.7v-238.4c0-2.3-1.8-4.6-2.8-6.9-1.9,1.1-4,1.9-5.5,3.3-11.1,10.5-21.8,21.5-33.1,31.7-26.6,24-53.4,47.6-80.2,71.4-6,5.3-6.2,7.4-1.4,13.5,16.1,20.7,29.3,43.1,40.6,66.7,40.8,85.3,60.5,176.4,73.2,269.4,1.4,10,2.3,20,3.7,29.9.2,1.2,2,2.2,3,3.2.8-1.1,2.1-2.1,2.4-3.3.4-2,.2-4.2.2-6.4v-234.3h0v.2h0ZM317.3,680.7c0,57.1,0,114.1,0,171.2,0,3-3,8.5,2.6,9,4.9.4,3.3-5.3,3.9-8.2,9.4-45,21.2-89.5,37.5-132.6,15.6-41.4,34.5-81.1,61.7-116.3,5.2-6.7,4.9-8.8-1.5-14.5-19.5-17.1-39-34.2-58.3-51.5-13-11.6-25.6-23.6-38.5-35.3-1.2-1.1-3.6-2.2-4.8-1.7-1.3.6-2.1,2.9-2.6,4.6-.4,1.2,0,2.7,0,4v171.2h0,0ZM295.3,680.8v-170.6c0-1.5.4-3.2,0-4.6-.6-1.7-1.5-3.7-2.9-4.5-.9-.5-3.2.5-4.3,1.5-32.7,29.3-65.4,58.6-98.1,88-5,4.5-4.8,6.6-1,12.3,11.3,17.3,23.5,34.1,33.3,52.3,28,51.7,45.5,107.2,59.1,164.1,2.8,11.8,5.2,23.8,8,35.6.4,1.5,2,2.6,3,3.9,1-1.5,2.3-2.9,2.9-4.6.5-1.4,0-3.1,0-4.6v-168.8h0ZM88.2,22.1h-55.2c-8.6,0-10.7,2-10.7,10.4v108.5c0,8.1,2.2,10.2,10.3,10.2h111.6c7.8,0,10.1-2.2,10.1-9.9V31.6c0-7.3-2.3-9.6-9.7-9.6h-56.4ZM524.7,22.1h-56.3c-7.4,0-9.6,2.2-9.6,9.6v109.6c0,7.6,2.3,10,9.9,10h112.1c7.4,0,9.6-2.3,9.6-9.7V32c0-7.7-2.2-9.9-9.9-9.9h-55.8ZM436.7,86.9v-54.5c0-8.1-2.2-10.3-10.2-10.3h-98.7c-8.2,0-10.3,2.1-10.3,10.1v109c0,7.8,2.1,10,9.9,10h99.3c8,0,10.1-2.2,10.1-10.4v-53.9h-.1ZM176.4,86.5v55.1c0,7.3,2.4,9.7,9.6,9.7h99.3c7.7,0,9.9-2.3,9.9-10V31.7c0-7.3-2.3-9.6-9.6-9.6h-99.3c-7.8,0-9.9,2.2-10,9.9v54.5h0ZM317.3,1251.2v53.9c0,7.7,2.2,9.9,9.9,9.9h99.3c7.8,0,10-2.2,10-9.9v-106.7c0-7.7-2.2-9.9-10-9.9h-99.3c-7.8,0-10,2.2-10,9.8v52.8h0ZM436.7,1400.3v-53.4c0-7.5-2.2-9.8-9.5-9.8h-100.5c-7,0-9.4,2.4-9.4,9.3v107.9c0,6.9,2.4,9.3,9.4,9.3h100.5c7,0,9.4-2.4,9.4-9.3v-53.9h.1ZM295.3,1400.9v-54.5c0-7-2.4-9.3-9.4-9.3h-99.9c-7.3,0-9.6,2.3-9.6,9.6v107.3c0,7.3,2.3,9.5,9.7,9.5h99.3c7.7,0,9.9-2.2,9.9-9.9v-52.8h0ZM295.3,1251.7v-53.4c0-7.5-2.2-9.8-9.4-9.8h-99.9c-7.3,0-9.5,2.3-9.5,9.7v107.3c0,7.3,2.3,9.5,9.7,9.5h99.3c7.7,0,9.8-2.2,9.8-10v-53.3h0ZM378.6,457.5h-46.5c-4.4,0-9.4-.9-11.7,4.2-2.3,5.2,2.4,7.8,5.3,10.4,33.9,31.2,67.9,62.2,102,93.2,1.6,1.5,4.2,1.9,6.4,2.8.8-2.4,2.4-4.8,2.4-7.2.2-31.1.1-62.3.1-93.4s-2.1-10-9.8-10h-48.2ZM234.8,457.5h-49.4c-6.4,0-9,2.4-9,8.6v95.7c0,2,1.3,4.5,2.8,5.6,1,.7,4-.5,5.3-1.7,31.4-28.2,62.6-56.5,93.8-84.8,4.3-3.9,8.3-8.1,12.1-12.5,4.2-4.8,2.1-9.8-4.2-10.8-1.5-.2-3.1,0-4.6,0h-47,.2,0ZM98.4,457.5c-15.7,0-31.3-.2-47,.2-3.1,0-6.8,2.3-8.9,4.6-.8.9,1.8,5.1,3.2,7.7.8,1.5,2.3,2.6,3.6,3.8,32.1,29.3,64.2,58.7,96.4,87.9,1.5,1.3,3.8,1.8,5.7,2.7,1-2.2,2.8-4.5,2.8-6.8.2-30.1,0-60.3,0-90.4s-2.1-9.7-10-9.7h-45.9,0ZM514.8,457.5h-47c-6.4,0-9,2.4-9,8.6,0,30.7,0,61.4.1,92.2,0,1.9,1.6,4.3,3.1,5.5.7.6,3.5-.7,4.8-1.8,6.5-5.5,13-11,19.2-16.8,27-24.9,54-49.8,80.7-75,2.1-1.9,4.3-6.9,3.4-8.1-1.9-2.4-5.8-4.4-9-4.4-15.5-.4-31-.2-46.4-.2h0ZM53.5,1463.6h22.6c5.6,0,8.2-2.6,8.3-8v-19.1c0-6.3-2.4-7.5-7.1-8.2-7.1-1-11-5.1-12-12.1-.7-4.8-3.4-7.1-8.2-7.1h-26.7c-5.5,0-8,2.6-8.1,8.2v37.7c0,5.8,2.6,8.4,8.5,8.4h22.6v.2h0ZM559.3,1463.6h22.7c5.9,0,8.4-2.6,8.4-8.4v-37.7c0-5.6-2.6-8.1-8.1-8.2h-26.7c-8.9,0-7.3,2.4-8.2,7.1-1.3,7.4-4.3,10.7-11.4,11.9-5.5.9-7.5,4-7.4,9.2v16.8c0,7.1,2.3,9.4,9.2,9.4h21.5ZM53.3,1188.6h-22.1c-6.3,0-8.9,2.5-8.9,8.6v36.5c0,6.1,2.4,8.6,8.3,8.7h26.7c8.9,0,7.3-2.3,8-6.8,1.1-7.2,5.1-11.3,12.5-12.3,4.8-.6,6.8-3.7,6.8-8.4v-18c0-5.8-2.6-8.3-8.5-8.4h-22.8ZM559.8,1188.6h-22.6c-6.3,0-8.6,2.5-8.7,8.8v16.8c0,5.4,1.9,8.5,7.7,9.4,6.5,1,10.2,4.9,11.1,11.5.8,5.1,3.5,7.4,8.5,7.4h26.1c5.9,0,8.4-2.6,8.5-8.5v-37c0-5.8-2.6-8.3-8.5-8.3h-22.1ZM53.1,1315.1h23.2c5.5,0,8-2.7,8.2-8.2v-15.1c0-5-2.1-7.4-6.6-8-7.3-1-11.5-5-12.7-12.2-.8-4.7-3.7-7-8.4-7h-26.1c-6,0-8.4,2.6-8.5,8.6v33.1c0,6.3,2.5,8.8,8.7,8.9h22.2ZM53.5,1337.1h-22.6c-5.9,0-8.4,2.6-8.5,8.5v33.1c0,5.8,2.6,8.3,8.6,8.4h26.1c8.7,0,7.4-2.2,8.3-7,1.5-7.7,4.6-10.6,12.1-11.8,4.7-.8,7-3.4,7-8.2v-14.5c0-5.9-2.6-8.4-8.4-8.5h-22.6ZM559.5,1315.1h22.6c5.6,0,8.2-2.6,8.2-8v-34.8c0-11.6-2.7-7.6-7.5-7.7-9.3-.2-18.6,0-27.8,0s-7.1,2.3-7.5,6.4c-.9,7.4-4.9,11.4-12.1,12.6-4.8.8-6.9,3.7-6.8,8.4v14.5c0,6.2,2.6,8.5,8.9,8.6h22ZM559.7,1337.2h-23.2c-5.1,0-7.8,2.7-7.9,7.8v15.1c0,5.1,2.3,7.7,7.4,8.4,6.6.9,10.4,4.7,11.3,11.2.8,5.4,3.7,7.6,8.9,7.5h25.5c6.2,0,8.6-2.5,8.7-8.8v-32.4c0-6.3-2.5-8.7-8.6-8.8h-22.1,0ZM154.3,1436.6v-19.7c0-4.8-2.6-7.5-7.4-7.7-4.6-.2-9.3,0-13.9,0s-7,2.4-7.4,6.5c-.7,7.5-4.8,11.5-12,12.6-4.8.8-6.9,3.7-7,8.3v18.5c0,5.9,2.5,8.4,8.4,8.4h30.7c5.9,0,8.4-2.6,8.5-8.4,0-6.2,0-12.4,0-18.5h.1ZM458.8,1436.2v19.1c.1,5.6,2.6,8.2,8.1,8.2h31.3c5.5,0,8.1-2.7,8.2-8.1.1-5.6,0-11.2,0-16.8s-.8-8.8-8.5-10.4c-4.9-1.1-8.3-3.9-10-8.7-2.4-6.9-7.2-10.3-14.3-10.3-10.7,0-4.3,0-6.4,0-5.9.2-8.4,2.6-8.5,8.5-.1,6.2,0,12.4,0,18.5h0ZM154.3,1215.3v-18.5c0-5.5-2.6-8.1-8.1-8.2h-31.3c-5.6,0-8,2.5-8.2,8.1v16.8c-.2,5.9,1.8,9.4,8.2,10.1,5.4.7,9,4.3,10.5,9.6,2.5,9.2,2.5,9.3,12,9.3s5,0,7.5,0c7.1,0,9.4-2.3,9.5-9.3v-17.9h0ZM458.8,1215.5c0,6.2-.1,12.4,0,18.5.1,5.9,2.6,8.3,8.6,8.5h11.6c3.9,0,7.5-2.3,8.3-7.1,1.1-6.9,5.1-11,12.1-12,4.7-.7,7.1-3.4,7.1-8.2v-18.5c-.1-5.5-2.7-8-8.2-8.1h-30.8c-6.2,0-8.5,2.5-8.6,8.9v18h-.1ZM154.3,1290.1v-16.8c0-5-2.2-9-7.2-8.4-7.3.9-16.7-5-21.5,5.6v1.1c-1.4,7.5-4.2,10.5-11.9,12-4.7.9-7,3.6-6.9,8.3v15.1c0,5.6,2.6,8.1,8.1,8.1h31.3c5.5,0,8-2.7,8.1-8.2,0-5.6,0-11.2,0-16.8h0ZM154.3,1362v-16.8c0-5.1-2.7-7.9-7.8-7.9h-32c-10.7,0-7.8,2.8-7.9,7.9v14.5c0,5.2,2.1,8.3,7.6,8.8,5.6.6,9.2,4,10.9,9.1,3.1,9.5,2.9,9.6,13,9.6s5,0,7.5,0c6.2-.2,8.6-2.6,8.6-8.9v-16.2h.1ZM458.8,1290.1c0,5.6-.1,11.2,0,16.8.1,5.6,2.6,8.1,8.2,8.1h31.3c5.5,0,7.9-2.7,8.1-8.3.1-4.6,0-9.3,0-13.9.2-5.5-2.1-8.6-7.8-9.3-5.7-.8-9.4-4.2-11-9.8-2.6-9.1-2.7-9.2-12.3-9.2s-4.6,0-7,0c-7,0-9.4,2.4-9.5,9.3v16.2h0ZM458.8,1361.7v16.2c0,6.6,2.5,9.1,8.9,9.2h10.4c5.1,0,8.2-1.9,9.1-7.4,1.2-7.1,4.8-10.3,11.9-11.4,4.7-.7,7.2-3.2,7.2-8v-15.1c-.1-5.5-2.7-8-8.2-8.1h-30.8c-6.2,0-8.5,2.5-8.6,8.9v15.7h.1ZM447.5,397.2c8.1,0,13-5.3,11-12.9-1.9-7.4-4.4-14.7-7-22-.5-1.5-2.5-3.3-3.9-3.3s-3.4,1.8-3.9,3.2c-2.6,7.2-5.1,14.5-7,21.9-2,7.9,2.5,13,10.7,13.1h0ZM165.3,397.2c8,0,12.8-5.4,10.9-13.1-1.9-7.4-4.4-14.7-7-21.9-.5-1.5-2.6-3.3-4-3.3s-3.4,1.9-3.9,3.3c-2.6,7.2-5.2,14.5-6.9,21.9-1.9,8,2.6,13,10.9,13h0ZM436.3,202.9c3.5,4,6.2,7.6,9.4,10.6.8.7,3.5.2,4.8-.6,8.2-5,7.9-18.7-.5-23.6-1.2-.7-4.1-.8-4.7,0-3.1,4-5.6,8.4-8.9,13.6h-.1ZM155.6,202.5c0,4.6,5.9,11.5,9.7,11.4,3.7,0,9.7-7.3,9.6-11.7,0-4.5-6.7-13.8-9.8-13.8s-9.6,9.5-9.5,14h0ZM518.9,1248.1c-5.7.8-9.5,2.4-9.3,7.1.1,4.2,3.5,6.5,8.1,6.3,4.5-.2,7.8-2.6,7.3-6.9-.3-2.4-3.9-4.4-6-6.6h-.1ZM97.3,1248.2c-.4.4-.8.9-1.2,1.3-4.5-.6-8.3,1.1-8.3,5.6s3.3,6.6,7.8,6.5c4.5,0,7.9-2.4,7.4-6.7-.2-2.4-3.7-4.5-5.7-6.7h0ZM516.8,1394.1c-4.2,0-7.4,2.2-7.4,5.5s3.9,6.6,8.2,6.5c4.2,0,7.4-2.2,7.5-6.3,0-4.5-3.4-5.9-8.2-5.7h-.1ZM97.1,1392.9c-5.5.9-9.4,2.1-9.3,7,0,4.1,3.4,6.2,7.6,6.2s8-2.2,7.6-6.5c-.2-2.4-3.8-4.4-5.9-6.6h0Z"/>
</svg>