<?xml version="1.0" encoding="UTF-8"?>
<svg id="Layer_1" xmlns="http://www.w3.org/2000/svg" version="1.1" viewBox="0 0 1376.9 79.5">
  <!-- Generator: Adobe Illustrator 29.2.1, SVG Export Plug-In . SVG Version: 2.1.0 Build 116)  -->
  <defs>
    <style>
      .st0 {
        fill: #f6f1ea;
      }
    </style>
  </defs>
  <path class="st0" d="M1376.9,37.8h-46.9l42.8-20.2c.7-.3,1.1-.8,1.1-1.6,0-1.2-.6-1.8-1.8-1.8s-.4,0-.6.1l-49.6,23.4h-60.9l42.8-20.2c.7-.3,1.1-.8,1.1-1.6,0-1.2-.6-1.8-1.8-1.8s-.4,0-.6.1l-49.6,23.4h-60.9l42.8-20.2c.7-.3,1.1-.8,1.1-1.6,0-1.2-.6-1.8-1.8-1.8s-.4,0-.6.1l-49.6,23.4h-60.9l42.8-20.2c.7-.3,1.1-.8,1.1-1.6,0-1.2-.6-1.8-1.8-1.8s-.4,0-.6.1l-49.6,23.4h-60.9l42.8-20.2c.7-.3,1.1-.8,1.1-1.6,0-1.2-.6-1.8-1.8-1.8s-.4,0-.6.1l-49.6,23.4h-60.9l42.8-20.2c.7-.3,1.1-.8,1.1-1.6,0-1.2-.6-1.8-1.8-1.8s-.4,0-.6.1l-49.6,23.4h-60.9l42.8-20.2c.7-.3,1.1-.8,1.1-1.6,0-1.2-.6-1.8-1.8-1.8s-.4,0-.6.1l-49.6,23.4h-60.9l42.8-20.2c.7-.3,1.1-.8,1.1-1.6,0-1.2-.6-1.8-1.8-1.8s-.4,0-.6.1l-49.6,23.4h-60.9l42.8-20.2c.7-.3,1.1-.8,1.1-1.6,0-1.2-.6-1.8-1.8-1.8s-.4,0-.6.1l-49.6,23.4h-60.9l42.8-20.2c.7-.3,1.1-.8,1.1-1.6,0-1.2-.6-1.8-1.8-1.8s-.4,0-.6.1l-49.6,23.4h-19.4l-49.6-23.4c-.2,0-.4-.1-.6-.1-1.2,0-1.8.6-1.8,1.8s.3,1.3,1,1.6l42.7,20.2h-60.8l-49.6-23.4c-.2,0-.4-.1-.6-.1-1.2,0-1.8.6-1.8,1.8s.3,1.3,1,1.6l42.7,20.2h-60.8l-49.6-23.4c-.2,0-.4-.1-.6-.1-1.2,0-1.8.6-1.8,1.8s.3,1.3,1,1.6l42.7,20.2h-60.8l-49.6-23.4c-.2,0-.4-.1-.6-.1-1.2,0-1.8.6-1.8,1.8s.3,1.3,1,1.6l42.7,20.2h-60.8l-49.6-23.4c-.2,0-.4-.1-.6-.1-1.2,0-1.8.6-1.8,1.8s.3,1.3,1,1.6l42.7,20.2h-60.8l-49.6-23.4c-.2,0-.4-.1-.6-.1-1.2,0-1.8.6-1.8,1.8s.3,1.3,1,1.6l42.7,20.2h-60.8l-49.6-23.4c-.2,0-.4-.1-.6-.1-1.2,0-1.8.6-1.8,1.8s.3,1.3,1,1.6l42.7,20.2h-60.8l-49.6-23.4c-.2,0-.4-.1-.6-.1-1.2,0-1.8.6-1.8,1.8s.3,1.3,1,1.6l42.7,20.2h-60.8l-49.6-23.4c-.2,0-.4-.1-.6-.1-1.2,0-1.8.6-1.8,1.8s.3,1.3,1,1.6l42.7,20.2h-60.8L9.8,14.4c-.2,0-.4-.1-.6-.1-1.2,0-1.8.6-1.8,1.8s.3,1.3,1,1.6l42.7,20.2H0v4h51.8L8.4,62.3c-.7.3-1.1.8-1.1,1.6,0,1.2.6,1.8,1.8,1.8s.4,0,.6-.1l50.2-23.7h60.9l-43.4,20.5c-.7.3-1.1.8-1.1,1.6,0,1.2.6,1.8,1.8,1.8s.4,0,.6-.1l50.2-23.7h60.9l-43.4,20.5c-.7.3-1.1.8-1.1,1.6,0,1.2.6,1.8,1.8,1.8s.4,0,.6-.1l50.2-23.7h60.9l-43.4,20.5c-.7.3-1.1.8-1.1,1.6,0,1.2.6,1.8,1.8,1.8s.4,0,.6-.1l50.2-23.7h60.9l-43.4,20.5c-.7.3-1.1.8-1.1,1.6,0,1.2.6,1.8,1.8,1.8s.4,0,.6-.1l50.2-23.7h60.9l-43.4,20.5c-.7.3-1.1.8-1.1,1.6,0,1.2.6,1.8,1.8,1.8s.4,0,.6-.1l50.2-23.7h60.9l-43.4,20.5c-.7.3-1.1.8-1.1,1.6,0,1.2.6,1.8,1.8,1.8s.4,0,.6-.1l50.2-23.7h60.9l-43.4,20.5c-.7.3-1.1.8-1.1,1.6,0,1.2.6,1.8,1.8,1.8s.4,0,.6-.1l50.2-23.7h60.9l-43.4,20.5c-.7.3-1.1.8-1.1,1.6,0,1.2.6,1.8,1.8,1.8s.4,0,.6-.1l50.2-23.7h60.9l-43.4,20.5c-.7.3-1.1.8-1.1,1.6,0,1.2.6,1.8,1.8,1.8s.4,0,.6-.1l50.2-23.7h18.2l50.2,23.7c.2,0,.4.1.6.1,1.2,0,1.8-.6,1.8-1.8s-.3-1.3-1-1.6l-43.3-20.5h60.8l50.2,23.7c.2,0,.4.1.6.1,1.2,0,1.8-.6,1.8-1.8s-.3-1.3-1-1.6l-43.3-20.5h60.8l50.2,23.7c.2,0,.4.1.6.1,1.2,0,1.8-.6,1.8-1.8s-.3-1.3-1-1.6l-43.3-20.5h60.8l50.2,23.7c.2,0,.4.1.6.1,1.2,0,1.8-.6,1.8-1.8s-.3-1.3-1-1.6l-43.3-20.5h60.8l50.2,23.7c.2,0,.4.1.6.1,1.2,0,1.8-.6,1.8-1.8s-.3-1.3-1-1.6l-43.3-20.5h60.8l50.2,23.7c.2,0,.4.1.6.1,1.2,0,1.8-.6,1.8-1.8s-.3-1.3-1-1.6l-43.3-20.5h60.8l50.2,23.7c.2,0,.4.1.6.1,1.2,0,1.8-.6,1.8-1.8s-.3-1.3-1-1.6l-43.3-20.5h60.8l50.2,23.7c.2,0,.4.1.6.1,1.2,0,1.8-.6,1.8-1.8s-.3-1.3-1-1.6l-43.3-20.5h60.8l50.2,23.7c.2,0,.4.1.6.1,1.2,0,1.8-.6,1.8-1.8s-.3-1.3-1-1.6l-43.3-20.5h60.8l50.2,23.7c.2,0,.4.1.6.1,1.2,0,1.8-.6,1.8-1.8s-.3-1.3-1-1.6l-43.3-20.5h47.4v-4Z"/>
</svg>